<svg xmlns="http://www.w3.org/2000/svg" xmlns:xlink="http://www.w3.org/1999/xlink" width="1024" zoomAndPan="magnify" viewBox="0 0 768 767.999994" height="1024" preserveAspectRatio="xMidYMid meet" version="1.0"><defs><g/><clipPath id="51acf3f9f6"><path d="M 244.101562 214 L 549 214 L 549 518.601562 L 244.101562 518.601562 Z M 244.101562 214 " clip-rule="nonzero"/></clipPath><clipPath id="0b424cfebb"><path d="M 247 211.105469 L 551.601562 211.105469 L 551.601562 516 L 247 516 Z M 247 211.105469 " clip-rule="nonzero"/></clipPath></defs><rect x="-76.8" width="921.6" fill="#ffffff" y="-76.799999" height="921.599993" fill-opacity="1"/><rect x="-76.8" width="921.6" fill="#ffffff" y="-76.799999" height="921.599993" fill-opacity="1"/><rect x="-76.8" width="921.6" fill="#00517c" y="-76.799999" height="921.599993" fill-opacity="1"/><path fill="#e5b344" d="M 438.042969 313.566406 L 542.457031 407.273438 L 438.042969 292.738281 L 394.542969 346.625 L 363.835938 313.335938 L 332.695312 347.441406 L 332.695312 331.792969 C 324.566406 331.792969 317.972656 338.386719 317.972656 346.519531 L 317.972656 363.566406 L 253.289062 434.417969 L 363.847656 334.160156 L 477.96875 437 L 394.566406 346.613281 Z M 438.042969 313.566406 " fill-opacity="1" fill-rule="nonzero"/><path fill="#e5b344" d="M 352.960938 372.183594 L 364.066406 372.183594 L 364.066406 383.289062 L 352.960938 383.289062 Z M 352.960938 372.183594 " fill-opacity="1" fill-rule="nonzero"/><path fill="#e5b344" d="M 366.6875 372.183594 L 377.792969 372.183594 L 377.792969 383.289062 L 366.6875 383.289062 Z M 366.6875 372.183594 " fill-opacity="1" fill-rule="nonzero"/><path fill="#e5b344" d="M 352.960938 385.542969 L 364.066406 385.542969 L 364.066406 396.648438 L 352.960938 396.648438 Z M 352.960938 385.542969 " fill-opacity="1" fill-rule="nonzero"/><path fill="#e5b344" d="M 366.6875 385.542969 L 377.792969 385.542969 L 377.792969 396.648438 L 366.6875 396.648438 Z M 366.6875 385.542969 " fill-opacity="1" fill-rule="nonzero"/><path fill="#e5b344" d="M 429.175781 346.039062 L 436.859375 346.039062 L 436.859375 353.722656 L 429.175781 353.722656 Z M 429.175781 346.039062 " fill-opacity="1" fill-rule="nonzero"/><path fill="#e5b344" d="M 438.671875 346.039062 L 446.359375 346.039062 L 446.359375 353.722656 L 438.671875 353.722656 Z M 438.671875 346.039062 " fill-opacity="1" fill-rule="nonzero"/><path fill="#e5b344" d="M 429.175781 355.285156 L 436.859375 355.285156 L 436.859375 362.96875 L 429.175781 362.96875 Z M 429.175781 355.285156 " fill-opacity="1" fill-rule="nonzero"/><path fill="#e5b344" d="M 438.671875 355.285156 L 446.359375 355.285156 L 446.359375 362.96875 L 438.671875 362.96875 Z M 438.671875 355.285156 " fill-opacity="1" fill-rule="nonzero"/><g clip-path="url(#51acf3f9f6)"><path fill="#e5b344" d="M 250.003906 512.746094 L 250.039062 512.710938 L 248.832031 365.613281 L 247.085938 214.078125 L 245.339844 364.164062 L 244.121094 515.707031 L 244.101562 518.648438 L 247.027344 518.625 L 398.5625 517.410156 L 548.660156 515.675781 L 397.125 513.941406 Z M 250.003906 512.746094 " fill-opacity="1" fill-rule="nonzero"/></g><g clip-path="url(#0b424cfebb)"><path fill="#e5b344" d="M 551.644531 211.105469 L 548.714844 211.125 L 397.183594 212.34375 L 247.085938 214.078125 L 398.621094 215.8125 L 545.742188 217.007812 L 545.71875 217.03125 L 545.707031 217.03125 L 546.914062 364.128906 L 548.660156 515.675781 L 550.40625 365.578125 L 551.621094 214.042969 Z M 551.644531 211.105469 " fill-opacity="1" fill-rule="nonzero"/></g><g fill="#e5b344" fill-opacity="1"><g transform="translate(188.457673, 587.126848)"><g><path d="M 29.34375 -2.21875 C 28.65625 -1.21875 27.96875 -0.492188 27.28125 -0.046875 C 26.601562 0.398438 25.703125 0.625 24.578125 0.625 C 23.367188 0.625 22.367188 0.269531 21.578125 -0.4375 C 20.796875 -1.15625 20.210938 -2.398438 19.828125 -4.171875 L 18.84375 -8.625 C 18.488281 -10.164062 18.15625 -11.347656 17.84375 -12.171875 C 17.53125 -13.003906 17.0625 -13.671875 16.4375 -14.171875 C 15.820312 -14.679688 14.953125 -14.9375 13.828125 -14.9375 L 9.609375 -14.9375 L 9.609375 -4.71875 C 9.609375 -3.582031 9.695312 -2.765625 9.875 -2.265625 C 10.050781 -1.765625 10.382812 -1.425781 10.875 -1.25 C 11.363281 -1.070312 12.140625 -0.953125 13.203125 -0.890625 L 13.203125 0 C 11.835938 -0.09375 9.957031 -0.140625 7.5625 -0.140625 C 5.007812 -0.140625 3.109375 -0.09375 1.859375 0 L 1.859375 -0.890625 C 2.929688 -0.953125 3.710938 -1.070312 4.203125 -1.25 C 4.691406 -1.425781 5.023438 -1.765625 5.203125 -2.265625 C 5.378906 -2.765625 5.46875 -3.582031 5.46875 -4.71875 L 5.46875 -26.765625 C 5.46875 -27.890625 5.378906 -28.703125 5.203125 -29.203125 C 5.023438 -29.710938 4.691406 -30.054688 4.203125 -30.234375 C 3.710938 -30.410156 2.929688 -30.523438 1.859375 -30.578125 L 1.859375 -31.46875 C 3.109375 -31.382812 4.921875 -31.34375 7.296875 -31.34375 L 12.09375 -31.390625 C 12.65625 -31.410156 13.289062 -31.421875 14 -31.421875 C 17.4375 -31.421875 20.082031 -30.703125 21.9375 -29.265625 C 23.789062 -27.828125 24.71875 -25.96875 24.71875 -23.6875 C 24.71875 -22.53125 24.441406 -21.367188 23.890625 -20.203125 C 23.347656 -19.035156 22.429688 -17.984375 21.140625 -17.046875 C 19.847656 -16.109375 18.164062 -15.476562 16.09375 -15.15625 L 16.625 -15.0625 C 18.582031 -14.738281 20.003906 -14.144531 20.890625 -13.28125 C 21.785156 -12.425781 22.4375 -11.066406 22.84375 -9.203125 L 23.953125 -4.671875 C 24.253906 -3.304688 24.566406 -2.351562 24.890625 -1.8125 C 25.210938 -1.28125 25.660156 -1.015625 26.234375 -1.015625 C 26.734375 -1.015625 27.148438 -1.148438 27.484375 -1.421875 C 27.828125 -1.691406 28.222656 -2.125 28.671875 -2.71875 Z M 12.890625 -30.578125 C 11.972656 -30.578125 11.285156 -30.472656 10.828125 -30.265625 C 10.367188 -30.066406 10.050781 -29.695312 9.875 -29.15625 C 9.695312 -28.625 9.609375 -27.828125 9.609375 -26.765625 L 9.609375 -15.828125 L 12.578125 -15.828125 C 15.515625 -15.828125 17.53125 -16.476562 18.625 -17.78125 C 19.71875 -19.082031 20.265625 -20.890625 20.265625 -23.203125 C 20.265625 -25.628906 19.6875 -27.460938 18.53125 -28.703125 C 17.375 -29.953125 15.492188 -30.578125 12.890625 -30.578125 Z M 12.890625 -30.578125 "/></g></g></g><g fill="#e5b344" fill-opacity="1"><g transform="translate(235.042223, 587.126848)"><g><path d="M 24.625 -5.6875 C 24.625 -4 24.726562 -2.101562 24.9375 0 C 22.925781 -0.09375 19.535156 -0.140625 14.765625 -0.140625 C 9.066406 -0.140625 4.765625 -0.09375 1.859375 0 L 1.859375 -0.890625 C 2.929688 -0.953125 3.710938 -1.070312 4.203125 -1.25 C 4.691406 -1.425781 5.023438 -1.765625 5.203125 -2.265625 C 5.378906 -2.765625 5.46875 -3.582031 5.46875 -4.71875 L 5.46875 -26.765625 C 5.46875 -27.890625 5.378906 -28.703125 5.203125 -29.203125 C 5.023438 -29.710938 4.691406 -30.054688 4.203125 -30.234375 C 3.710938 -30.410156 2.929688 -30.523438 1.859375 -30.578125 L 1.859375 -31.46875 C 4.765625 -31.382812 9.066406 -31.34375 14.765625 -31.34375 C 19.117188 -31.34375 22.210938 -31.382812 24.046875 -31.46875 C 23.835938 -29.507812 23.734375 -27.765625 23.734375 -26.234375 C 23.734375 -25.078125 23.78125 -24.15625 23.875 -23.46875 L 22.84375 -23.46875 C 22.632812 -25.394531 22.367188 -26.820312 22.046875 -27.75 C 21.722656 -28.6875 21.175781 -29.367188 20.40625 -29.796875 C 19.632812 -30.234375 18.460938 -30.453125 16.890625 -30.453125 L 13.203125 -30.453125 C 12.140625 -30.453125 11.363281 -30.367188 10.875 -30.203125 C 10.382812 -30.046875 10.050781 -29.710938 9.875 -29.203125 C 9.695312 -28.703125 9.609375 -27.890625 9.609375 -26.765625 L 9.609375 -16.265625 L 12.53125 -16.265625 C 13.570312 -16.265625 14.375 -16.507812 14.9375 -17 C 15.5 -17.488281 15.875 -18.066406 16.0625 -18.734375 C 16.257812 -19.398438 16.414062 -20.238281 16.53125 -21.25 L 16.671875 -22.140625 L 17.6875 -22.140625 C 17.601562 -20.890625 17.5625 -19.492188 17.5625 -17.953125 L 17.5625 -15.828125 C 17.5625 -14.316406 17.648438 -12.210938 17.828125 -9.515625 L 16.796875 -9.515625 C 16.773438 -9.722656 16.6875 -10.441406 16.53125 -11.671875 C 16.382812 -12.898438 15.976562 -13.820312 15.3125 -14.4375 C 14.644531 -15.0625 13.71875 -15.375 12.53125 -15.375 L 9.609375 -15.375 L 9.609375 -4.71875 C 9.609375 -3.582031 9.695312 -2.765625 9.875 -2.265625 C 10.050781 -1.765625 10.382812 -1.429688 10.875 -1.265625 C 11.363281 -1.097656 12.140625 -1.015625 13.203125 -1.015625 L 16.453125 -1.015625 C 18.285156 -1.015625 19.679688 -1.257812 20.640625 -1.75 C 21.609375 -2.238281 22.3125 -3.023438 22.75 -4.109375 C 23.195312 -5.191406 23.523438 -6.785156 23.734375 -8.890625 L 24.765625 -8.890625 C 24.671875 -8.085938 24.625 -7.019531 24.625 -5.6875 Z M 24.625 -5.6875 "/></g></g></g><g fill="#e5b344" fill-opacity="1"><g transform="translate(279.893274, 587.126848)"><g><path d="M 25.203125 -3.734375 C 25.910156 -1.898438 26.929688 -0.953125 28.265625 -0.890625 L 28.265625 0 C 27.085938 -0.09375 25.503906 -0.140625 23.515625 -0.140625 C 20.960938 -0.140625 19.066406 -0.09375 17.828125 0 L 17.828125 -0.890625 C 18.953125 -0.953125 19.757812 -1.09375 20.25 -1.3125 C 20.738281 -1.53125 20.984375 -1.9375 20.984375 -2.53125 C 20.984375 -3.039062 20.804688 -3.738281 20.453125 -4.625 L 17.734375 -11.90625 L 6.984375 -11.90625 L 5.15625 -7.203125 C 4.5625 -5.597656 4.265625 -4.382812 4.265625 -3.5625 C 4.265625 -2.632812 4.582031 -1.960938 5.21875 -1.546875 C 5.851562 -1.140625 6.828125 -0.921875 8.140625 -0.890625 L 8.140625 0 C 6.441406 -0.09375 4.734375 -0.140625 3.015625 -0.140625 C 1.679688 -0.140625 0.570312 -0.09375 -0.3125 0 L -0.3125 -0.890625 C 1.164062 -1.242188 2.335938 -2.53125 3.203125 -4.75 L 13.640625 -31.6875 L 14.359375 -31.6875 Z M 17.375 -12.796875 L 12.40625 -26.09375 L 7.328125 -12.796875 Z M 17.375 -12.796875 "/></g></g></g><g fill="#e5b344" fill-opacity="1"><g transform="translate(325.677726, 587.126848)"><g><path d="M 13.203125 -30.578125 C 12.140625 -30.523438 11.363281 -30.410156 10.875 -30.234375 C 10.382812 -30.054688 10.050781 -29.710938 9.875 -29.203125 C 9.695312 -28.703125 9.609375 -27.890625 9.609375 -26.765625 L 9.609375 -4.71875 C 9.609375 -3.582031 9.695312 -2.765625 9.875 -2.265625 C 10.050781 -1.765625 10.382812 -1.429688 10.875 -1.265625 C 11.363281 -1.097656 12.140625 -1.015625 13.203125 -1.015625 L 16.453125 -1.015625 C 18.285156 -1.015625 19.679688 -1.273438 20.640625 -1.796875 C 21.609375 -2.316406 22.3125 -3.15625 22.75 -4.3125 C 23.195312 -5.46875 23.523438 -7.140625 23.734375 -9.328125 L 24.765625 -9.328125 C 24.671875 -8.410156 24.625 -7.195312 24.625 -5.6875 C 24.625 -4 24.726562 -2.101562 24.9375 0 C 22.925781 -0.09375 19.535156 -0.140625 14.765625 -0.140625 C 9.066406 -0.140625 4.765625 -0.09375 1.859375 0 L 1.859375 -0.890625 C 2.929688 -0.953125 3.710938 -1.070312 4.203125 -1.25 C 4.691406 -1.425781 5.023438 -1.765625 5.203125 -2.265625 C 5.378906 -2.765625 5.46875 -3.582031 5.46875 -4.71875 L 5.46875 -26.765625 C 5.46875 -27.890625 5.378906 -28.703125 5.203125 -29.203125 C 5.023438 -29.710938 4.691406 -30.054688 4.203125 -30.234375 C 3.710938 -30.410156 2.929688 -30.523438 1.859375 -30.578125 L 1.859375 -31.46875 C 3.109375 -31.382812 5.007812 -31.34375 7.5625 -31.34375 C 9.925781 -31.34375 11.804688 -31.382812 13.203125 -31.46875 Z M 13.203125 -30.578125 "/></g></g></g><g fill="#e5b344" fill-opacity="1"><g transform="translate(369.59535, 587.126848)"><g/></g></g><g fill="#e5b344" fill-opacity="1"><g transform="translate(398.445094, 587.126848)"><g><path d="M 13.203125 -30.578125 C 12.140625 -30.523438 11.363281 -30.410156 10.875 -30.234375 C 10.382812 -30.054688 10.050781 -29.710938 9.875 -29.203125 C 9.695312 -28.703125 9.609375 -27.890625 9.609375 -26.765625 L 9.609375 -4.71875 C 9.609375 -3.582031 9.695312 -2.765625 9.875 -2.265625 C 10.050781 -1.765625 10.382812 -1.429688 10.875 -1.265625 C 11.363281 -1.097656 12.140625 -1.015625 13.203125 -1.015625 L 16.453125 -1.015625 C 18.285156 -1.015625 19.679688 -1.273438 20.640625 -1.796875 C 21.609375 -2.316406 22.3125 -3.15625 22.75 -4.3125 C 23.195312 -5.46875 23.523438 -7.140625 23.734375 -9.328125 L 24.765625 -9.328125 C 24.671875 -8.410156 24.625 -7.195312 24.625 -5.6875 C 24.625 -4 24.726562 -2.101562 24.9375 0 C 22.925781 -0.09375 19.535156 -0.140625 14.765625 -0.140625 C 9.066406 -0.140625 4.765625 -0.09375 1.859375 0 L 1.859375 -0.890625 C 2.929688 -0.953125 3.710938 -1.070312 4.203125 -1.25 C 4.691406 -1.425781 5.023438 -1.765625 5.203125 -2.265625 C 5.378906 -2.765625 5.46875 -3.582031 5.46875 -4.71875 L 5.46875 -26.765625 C 5.46875 -27.890625 5.378906 -28.703125 5.203125 -29.203125 C 5.023438 -29.710938 4.691406 -30.054688 4.203125 -30.234375 C 3.710938 -30.410156 2.929688 -30.523438 1.859375 -30.578125 L 1.859375 -31.46875 C 3.109375 -31.382812 5.007812 -31.34375 7.5625 -31.34375 C 9.925781 -31.34375 11.804688 -31.382812 13.203125 -31.46875 Z M 13.203125 -30.578125 "/></g></g></g><g fill="#e5b344" fill-opacity="1"><g transform="translate(442.362701, 587.126848)"><g><path d="M 24.625 -5.6875 C 24.625 -4 24.726562 -2.101562 24.9375 0 C 22.925781 -0.09375 19.535156 -0.140625 14.765625 -0.140625 C 9.066406 -0.140625 4.765625 -0.09375 1.859375 0 L 1.859375 -0.890625 C 2.929688 -0.953125 3.710938 -1.070312 4.203125 -1.25 C 4.691406 -1.425781 5.023438 -1.765625 5.203125 -2.265625 C 5.378906 -2.765625 5.46875 -3.582031 5.46875 -4.71875 L 5.46875 -26.765625 C 5.46875 -27.890625 5.378906 -28.703125 5.203125 -29.203125 C 5.023438 -29.710938 4.691406 -30.054688 4.203125 -30.234375 C 3.710938 -30.410156 2.929688 -30.523438 1.859375 -30.578125 L 1.859375 -31.46875 C 4.765625 -31.382812 9.066406 -31.34375 14.765625 -31.34375 C 19.117188 -31.34375 22.210938 -31.382812 24.046875 -31.46875 C 23.835938 -29.507812 23.734375 -27.765625 23.734375 -26.234375 C 23.734375 -25.078125 23.78125 -24.15625 23.875 -23.46875 L 22.84375 -23.46875 C 22.632812 -25.394531 22.367188 -26.820312 22.046875 -27.75 C 21.722656 -28.6875 21.175781 -29.367188 20.40625 -29.796875 C 19.632812 -30.234375 18.460938 -30.453125 16.890625 -30.453125 L 13.203125 -30.453125 C 12.140625 -30.453125 11.363281 -30.367188 10.875 -30.203125 C 10.382812 -30.046875 10.050781 -29.710938 9.875 -29.203125 C 9.695312 -28.703125 9.609375 -27.890625 9.609375 -26.765625 L 9.609375 -16.265625 L 12.53125 -16.265625 C 13.570312 -16.265625 14.375 -16.507812 14.9375 -17 C 15.5 -17.488281 15.875 -18.066406 16.0625 -18.734375 C 16.257812 -19.398438 16.414062 -20.238281 16.53125 -21.25 L 16.671875 -22.140625 L 17.6875 -22.140625 C 17.601562 -20.890625 17.5625 -19.492188 17.5625 -17.953125 L 17.5625 -15.828125 C 17.5625 -14.316406 17.648438 -12.210938 17.828125 -9.515625 L 16.796875 -9.515625 C 16.773438 -9.722656 16.6875 -10.441406 16.53125 -11.671875 C 16.382812 -12.898438 15.976562 -13.820312 15.3125 -14.4375 C 14.644531 -15.0625 13.71875 -15.375 12.53125 -15.375 L 9.609375 -15.375 L 9.609375 -4.71875 C 9.609375 -3.582031 9.695312 -2.765625 9.875 -2.265625 C 10.050781 -1.765625 10.382812 -1.429688 10.875 -1.265625 C 11.363281 -1.097656 12.140625 -1.015625 13.203125 -1.015625 L 16.453125 -1.015625 C 18.285156 -1.015625 19.679688 -1.257812 20.640625 -1.75 C 21.609375 -2.238281 22.3125 -3.023438 22.75 -4.109375 C 23.195312 -5.191406 23.523438 -6.785156 23.734375 -8.890625 L 24.765625 -8.890625 C 24.671875 -8.085938 24.625 -7.019531 24.625 -5.6875 Z M 24.625 -5.6875 "/></g></g></g><g fill="#e5b344" fill-opacity="1"><g transform="translate(487.213779, 587.126848)"><g><path d="M 25.203125 -3.734375 C 25.910156 -1.898438 26.929688 -0.953125 28.265625 -0.890625 L 28.265625 0 C 27.085938 -0.09375 25.503906 -0.140625 23.515625 -0.140625 C 20.960938 -0.140625 19.066406 -0.09375 17.828125 0 L 17.828125 -0.890625 C 18.953125 -0.953125 19.757812 -1.09375 20.25 -1.3125 C 20.738281 -1.53125 20.984375 -1.9375 20.984375 -2.53125 C 20.984375 -3.039062 20.804688 -3.738281 20.453125 -4.625 L 17.734375 -11.90625 L 6.984375 -11.90625 L 5.15625 -7.203125 C 4.5625 -5.597656 4.265625 -4.382812 4.265625 -3.5625 C 4.265625 -2.632812 4.582031 -1.960938 5.21875 -1.546875 C 5.851562 -1.140625 6.828125 -0.921875 8.140625 -0.890625 L 8.140625 0 C 6.441406 -0.09375 4.734375 -0.140625 3.015625 -0.140625 C 1.679688 -0.140625 0.570312 -0.09375 -0.3125 0 L -0.3125 -0.890625 C 1.164062 -1.242188 2.335938 -2.53125 3.203125 -4.75 L 13.640625 -31.6875 L 14.359375 -31.6875 Z M 17.375 -12.796875 L 12.40625 -26.09375 L 7.328125 -12.796875 Z M 17.375 -12.796875 "/></g></g></g><g fill="#e5b344" fill-opacity="1"><g transform="translate(532.998217, 587.126848)"><g><path d="M 14 -31.46875 C 19.25 -31.46875 23.175781 -30.15625 25.78125 -27.53125 C 28.382812 -24.914062 29.6875 -21.101562 29.6875 -16.09375 C 29.6875 -12.863281 29.050781 -10.03125 27.78125 -7.59375 C 26.507812 -5.164062 24.664062 -3.289062 22.25 -1.96875 C 19.832031 -0.65625 16.953125 0 13.609375 0 L 11.03125 -0.046875 C 9.363281 -0.109375 8.144531 -0.140625 7.375 -0.140625 C 4.945312 -0.140625 3.109375 -0.09375 1.859375 0 L 1.859375 -0.890625 C 2.929688 -0.953125 3.710938 -1.070312 4.203125 -1.25 C 4.691406 -1.425781 5.023438 -1.765625 5.203125 -2.265625 C 5.378906 -2.765625 5.46875 -3.582031 5.46875 -4.71875 L 5.46875 -26.765625 C 5.46875 -27.890625 5.378906 -28.703125 5.203125 -29.203125 C 5.023438 -29.710938 4.691406 -30.054688 4.203125 -30.234375 C 3.710938 -30.410156 2.929688 -30.523438 1.859375 -30.578125 L 1.859375 -31.46875 C 2.898438 -31.382812 4.335938 -31.34375 6.171875 -31.34375 L 9.953125 -31.390625 C 11.972656 -31.441406 13.320312 -31.46875 14 -31.46875 Z M 12.890625 -30.671875 C 11.972656 -30.671875 11.285156 -30.566406 10.828125 -30.359375 C 10.367188 -30.148438 10.050781 -29.78125 9.875 -29.25 C 9.695312 -28.71875 9.609375 -27.914062 9.609375 -26.84375 L 9.609375 -4.625 C 9.609375 -3.550781 9.695312 -2.75 9.875 -2.21875 C 10.050781 -1.6875 10.367188 -1.316406 10.828125 -1.109375 C 11.285156 -0.898438 11.988281 -0.796875 12.9375 -0.796875 C 16.070312 -0.796875 18.546875 -1.363281 20.359375 -2.5 C 22.171875 -3.644531 23.4375 -5.3125 24.15625 -7.5 C 24.882812 -9.695312 25.25 -12.503906 25.25 -15.921875 C 25.25 -19.328125 24.847656 -22.101562 24.046875 -24.25 C 23.242188 -26.394531 21.945312 -28 20.15625 -29.0625 C 18.363281 -30.132812 15.941406 -30.671875 12.890625 -30.671875 Z M 12.890625 -30.671875 "/></g></g></g><g fill="#e5b344" fill-opacity="1"><g transform="translate(582.916342, 587.126848)"><g><path d="M 11.375 -31.96875 C 12.6875 -31.96875 13.71875 -31.828125 14.46875 -31.546875 C 15.226562 -31.265625 16.003906 -30.851562 16.796875 -30.3125 C 17.453125 -29.894531 17.957031 -29.6875 18.3125 -29.6875 C 18.582031 -29.6875 18.789062 -29.84375 18.9375 -30.15625 C 19.082031 -30.46875 19.203125 -30.96875 19.296875 -31.65625 L 20.3125 -31.65625 C 20.164062 -29.9375 20.09375 -26.910156 20.09375 -22.578125 L 19.078125 -22.578125 C 18.890625 -24.984375 18.195312 -27.007812 17 -28.65625 C 15.800781 -30.300781 14.0625 -31.125 11.78125 -31.125 C 10.175781 -31.125 8.867188 -30.640625 7.859375 -29.671875 C 6.859375 -28.710938 6.359375 -27.472656 6.359375 -25.953125 C 6.359375 -24.828125 6.613281 -23.847656 7.125 -23.015625 C 7.644531 -22.191406 8.304688 -21.484375 9.109375 -20.890625 C 9.910156 -20.296875 11.050781 -19.539062 12.53125 -18.625 L 13.828125 -17.828125 C 15.691406 -16.671875 17.164062 -15.65625 18.25 -14.78125 C 19.332031 -13.90625 20.195312 -12.90625 20.84375 -11.78125 C 21.5 -10.65625 21.828125 -9.335938 21.828125 -7.828125 C 21.828125 -5.128906 20.9375 -3.046875 19.15625 -1.578125 C 17.375 -0.109375 15.125 0.625 12.40625 0.625 C 10.976562 0.625 9.8125 0.472656 8.90625 0.171875 C 8.007812 -0.117188 7.144531 -0.515625 6.3125 -1.015625 C 5.65625 -1.429688 5.148438 -1.640625 4.796875 -1.640625 C 4.535156 -1.640625 4.328125 -1.484375 4.171875 -1.171875 C 4.023438 -0.867188 3.910156 -0.375 3.828125 0.3125 L 2.796875 0.3125 C 2.921875 -1.320312 2.984375 -4.878906 2.984375 -10.359375 L 4 -10.359375 C 4.207031 -7.367188 4.945312 -4.9375 6.21875 -3.0625 C 7.5 -1.195312 9.457031 -0.265625 12.09375 -0.265625 C 13.6875 -0.265625 15.046875 -0.757812 16.171875 -1.75 C 17.304688 -2.75 17.875 -4.222656 17.875 -6.171875 C 17.875 -7.835938 17.316406 -9.25 16.203125 -10.40625 C 15.085938 -11.5625 13.332031 -12.863281 10.9375 -14.3125 C 9.1875 -15.382812 7.769531 -16.332031 6.6875 -17.15625 C 5.601562 -17.988281 4.71875 -18.988281 4.03125 -20.15625 C 3.351562 -21.332031 3.015625 -22.703125 3.015625 -24.265625 C 3.015625 -26.753906 3.816406 -28.660156 5.421875 -29.984375 C 7.023438 -31.304688 9.007812 -31.96875 11.375 -31.96875 Z M 11.375 -31.96875 "/></g></g></g></svg>