<svg xmlns="http://www.w3.org/2000/svg" xmlns:xlink="http://www.w3.org/1999/xlink" width="600" zoomAndPan="magnify" viewBox="0 0 450 149.999998" height="200" preserveAspectRatio="xMidYMid meet" version="1.0"><defs><g/><clipPath id="6085de488f"><path d="M 185.261719 25.019531 L 264 25.019531 L 264 104.519531 L 185.261719 104.519531 Z M 185.261719 25.019531 " clip-rule="nonzero"/></clipPath><clipPath id="9d0a89469f"><path d="M 186 25.019531 L 264.761719 25.019531 L 264.761719 104 L 186 104 Z M 186 25.019531 " clip-rule="nonzero"/></clipPath></defs><rect x="-45" width="540" fill="#ffffff" y="-15" height="179.999997" fill-opacity="1"/><rect x="-45" width="540" fill="#ffffff" y="-15" height="179.999997" fill-opacity="1"/><rect x="-45" width="540" fill="#00517c" y="-15" height="179.999997" fill-opacity="1"/><path fill="#e5b344" d="M 235.402344 51.511719 L 262.394531 75.738281 L 235.402344 46.125 L 224.15625 60.058594 L 216.21875 51.449219 L 208.164062 60.269531 L 208.164062 56.222656 C 206.0625 56.222656 204.359375 57.925781 204.359375 60.03125 L 204.359375 64.4375 L 187.636719 82.753906 L 216.21875 56.835938 L 245.722656 83.421875 L 224.160156 60.054688 Z M 235.402344 51.511719 " fill-opacity="1" fill-rule="nonzero"/><path fill="#e5b344" d="M 213.40625 66.664062 L 216.277344 66.664062 L 216.277344 69.535156 L 213.40625 69.535156 Z M 213.40625 66.664062 " fill-opacity="1" fill-rule="nonzero"/><path fill="#e5b344" d="M 216.953125 66.664062 L 219.824219 66.664062 L 219.824219 69.535156 L 216.953125 69.535156 Z M 216.953125 66.664062 " fill-opacity="1" fill-rule="nonzero"/><path fill="#e5b344" d="M 213.40625 70.117188 L 216.277344 70.117188 L 216.277344 72.988281 L 213.40625 72.988281 Z M 213.40625 70.117188 " fill-opacity="1" fill-rule="nonzero"/><path fill="#e5b344" d="M 216.953125 70.117188 L 219.824219 70.117188 L 219.824219 72.988281 L 216.953125 72.988281 Z M 216.953125 70.117188 " fill-opacity="1" fill-rule="nonzero"/><path fill="#e5b344" d="M 233.109375 59.90625 L 235.09375 59.90625 L 235.09375 61.890625 L 233.109375 61.890625 Z M 233.109375 59.90625 " fill-opacity="1" fill-rule="nonzero"/><path fill="#e5b344" d="M 235.566406 59.90625 L 237.550781 59.90625 L 237.550781 61.890625 L 235.566406 61.890625 Z M 235.566406 59.90625 " fill-opacity="1" fill-rule="nonzero"/><path fill="#e5b344" d="M 233.109375 62.296875 L 235.09375 62.296875 L 235.09375 64.28125 L 233.109375 64.28125 Z M 233.109375 62.296875 " fill-opacity="1" fill-rule="nonzero"/><path fill="#e5b344" d="M 235.566406 62.296875 L 237.550781 62.296875 L 237.550781 64.28125 L 235.566406 64.28125 Z M 235.566406 62.296875 " fill-opacity="1" fill-rule="nonzero"/><g clip-path="url(#6085de488f)"><path fill="#e5b344" d="M 186.785156 103.003906 L 186.792969 103 L 186.796875 102.996094 L 186.484375 64.964844 L 186.03125 25.789062 L 185.582031 64.589844 L 185.265625 103.769531 L 185.261719 104.53125 L 186.019531 104.527344 L 225.195312 104.210938 L 264 103.761719 L 224.824219 103.3125 Z M 186.785156 103.003906 " fill-opacity="1" fill-rule="nonzero"/></g><g clip-path="url(#9d0a89469f)"><path fill="#e5b344" d="M 264.773438 25.019531 L 264.015625 25.027344 L 224.839844 25.339844 L 186.03125 25.789062 L 225.210938 26.238281 L 263.246094 26.546875 L 263.238281 26.550781 L 263.546875 64.582031 L 264 103.761719 L 264.453125 64.957031 L 264.765625 25.78125 Z M 264.773438 25.019531 " fill-opacity="1" fill-rule="nonzero"/></g><g fill="#e5b344" fill-opacity="1"><g transform="translate(170.86443, 122.305248)"><g><path d="M 7.59375 -0.578125 C 7.414062 -0.316406 7.238281 -0.128906 7.0625 -0.015625 C 6.882812 0.0976562 6.648438 0.15625 6.359375 0.15625 C 6.046875 0.15625 5.785156 0.0664062 5.578125 -0.109375 C 5.378906 -0.296875 5.226562 -0.617188 5.125 -1.078125 L 4.875 -2.234375 C 4.78125 -2.628906 4.691406 -2.929688 4.609375 -3.140625 C 4.535156 -3.359375 4.414062 -3.53125 4.25 -3.65625 C 4.09375 -3.789062 3.867188 -3.859375 3.578125 -3.859375 L 2.484375 -3.859375 L 2.484375 -1.21875 C 2.484375 -0.925781 2.503906 -0.710938 2.546875 -0.578125 C 2.597656 -0.453125 2.6875 -0.363281 2.8125 -0.3125 C 2.9375 -0.269531 3.140625 -0.242188 3.421875 -0.234375 L 3.421875 0 C 3.066406 -0.0195312 2.578125 -0.03125 1.953125 -0.03125 C 1.296875 -0.03125 0.804688 -0.0195312 0.484375 0 L 0.484375 -0.234375 C 0.753906 -0.242188 0.953125 -0.269531 1.078125 -0.3125 C 1.210938 -0.363281 1.300781 -0.453125 1.34375 -0.578125 C 1.394531 -0.710938 1.421875 -0.925781 1.421875 -1.21875 L 1.421875 -6.921875 C 1.421875 -7.210938 1.394531 -7.421875 1.34375 -7.546875 C 1.300781 -7.679688 1.210938 -7.769531 1.078125 -7.8125 C 0.953125 -7.863281 0.753906 -7.894531 0.484375 -7.90625 L 0.484375 -8.140625 C 0.804688 -8.117188 1.273438 -8.109375 1.890625 -8.109375 L 3.125 -8.125 C 3.269531 -8.125 3.4375 -8.125 3.625 -8.125 C 4.507812 -8.125 5.191406 -7.9375 5.671875 -7.5625 C 6.148438 -7.195312 6.390625 -6.71875 6.390625 -6.125 C 6.390625 -5.832031 6.316406 -5.53125 6.171875 -5.21875 C 6.035156 -4.914062 5.800781 -4.644531 5.46875 -4.40625 C 5.132812 -4.164062 4.695312 -4.003906 4.15625 -3.921875 L 4.296875 -3.90625 C 4.804688 -3.8125 5.175781 -3.65625 5.40625 -3.4375 C 5.632812 -3.21875 5.800781 -2.863281 5.90625 -2.375 L 6.203125 -1.203125 C 6.273438 -0.847656 6.351562 -0.601562 6.4375 -0.46875 C 6.519531 -0.332031 6.632812 -0.265625 6.78125 -0.265625 C 6.914062 -0.265625 7.023438 -0.296875 7.109375 -0.359375 C 7.203125 -0.429688 7.304688 -0.546875 7.421875 -0.703125 Z M 3.328125 -7.90625 C 3.097656 -7.90625 2.921875 -7.878906 2.796875 -7.828125 C 2.679688 -7.773438 2.597656 -7.679688 2.546875 -7.546875 C 2.503906 -7.410156 2.484375 -7.203125 2.484375 -6.921875 L 2.484375 -4.09375 L 3.25 -4.09375 C 4.007812 -4.09375 4.53125 -4.257812 4.8125 -4.59375 C 5.101562 -4.9375 5.25 -5.40625 5.25 -6 C 5.25 -6.632812 5.097656 -7.109375 4.796875 -7.421875 C 4.492188 -7.742188 4.003906 -7.90625 3.328125 -7.90625 Z M 3.328125 -7.90625 "/></g></g></g><g fill="#e5b344" fill-opacity="1"><g transform="translate(182.916869, 122.305248)"><g><path d="M 6.375 -1.46875 C 6.375 -1.03125 6.398438 -0.539062 6.453125 0 C 5.929688 -0.0195312 5.050781 -0.03125 3.8125 -0.03125 C 2.34375 -0.03125 1.234375 -0.0195312 0.484375 0 L 0.484375 -0.234375 C 0.753906 -0.242188 0.953125 -0.269531 1.078125 -0.3125 C 1.210938 -0.363281 1.300781 -0.453125 1.34375 -0.578125 C 1.394531 -0.710938 1.421875 -0.925781 1.421875 -1.21875 L 1.421875 -6.921875 C 1.421875 -7.210938 1.394531 -7.421875 1.34375 -7.546875 C 1.300781 -7.679688 1.210938 -7.769531 1.078125 -7.8125 C 0.953125 -7.863281 0.753906 -7.894531 0.484375 -7.90625 L 0.484375 -8.140625 C 1.234375 -8.117188 2.34375 -8.109375 3.8125 -8.109375 C 4.945312 -8.109375 5.75 -8.117188 6.21875 -8.140625 C 6.164062 -7.640625 6.140625 -7.1875 6.140625 -6.78125 C 6.140625 -6.488281 6.148438 -6.253906 6.171875 -6.078125 L 5.90625 -6.078125 C 5.851562 -6.566406 5.785156 -6.929688 5.703125 -7.171875 C 5.617188 -7.421875 5.476562 -7.597656 5.28125 -7.703125 C 5.082031 -7.816406 4.78125 -7.875 4.375 -7.875 L 3.421875 -7.875 C 3.140625 -7.875 2.9375 -7.851562 2.8125 -7.8125 C 2.6875 -7.769531 2.597656 -7.679688 2.546875 -7.546875 C 2.503906 -7.421875 2.484375 -7.210938 2.484375 -6.921875 L 2.484375 -4.203125 L 3.25 -4.203125 C 3.507812 -4.203125 3.710938 -4.265625 3.859375 -4.390625 C 4.003906 -4.523438 4.101562 -4.675781 4.15625 -4.84375 C 4.207031 -5.019531 4.25 -5.238281 4.28125 -5.5 L 4.3125 -5.734375 L 4.578125 -5.734375 C 4.554688 -5.410156 4.546875 -5.046875 4.546875 -4.640625 L 4.546875 -4.09375 C 4.546875 -3.695312 4.566406 -3.15625 4.609375 -2.46875 L 4.34375 -2.46875 C 4.332031 -2.519531 4.304688 -2.703125 4.265625 -3.015625 C 4.234375 -3.335938 4.128906 -3.578125 3.953125 -3.734375 C 3.785156 -3.898438 3.550781 -3.984375 3.25 -3.984375 L 2.484375 -3.984375 L 2.484375 -1.21875 C 2.484375 -0.925781 2.503906 -0.710938 2.546875 -0.578125 C 2.597656 -0.453125 2.6875 -0.367188 2.8125 -0.328125 C 2.9375 -0.285156 3.140625 -0.265625 3.421875 -0.265625 L 4.25 -0.265625 C 4.726562 -0.265625 5.09375 -0.328125 5.34375 -0.453125 C 5.59375 -0.578125 5.773438 -0.78125 5.890625 -1.0625 C 6.003906 -1.34375 6.085938 -1.753906 6.140625 -2.296875 L 6.40625 -2.296875 C 6.382812 -2.085938 6.375 -1.8125 6.375 -1.46875 Z M 6.375 -1.46875 "/></g></g></g><g fill="#e5b344" fill-opacity="1"><g transform="translate(194.520835, 122.305248)"><g><path d="M 6.515625 -0.96875 C 6.703125 -0.488281 6.96875 -0.242188 7.3125 -0.234375 L 7.3125 0 C 7.007812 -0.0195312 6.597656 -0.03125 6.078125 -0.03125 C 5.421875 -0.03125 4.929688 -0.0195312 4.609375 0 L 4.609375 -0.234375 C 4.898438 -0.242188 5.109375 -0.273438 5.234375 -0.328125 C 5.359375 -0.390625 5.421875 -0.5 5.421875 -0.65625 C 5.421875 -0.78125 5.378906 -0.960938 5.296875 -1.203125 L 4.59375 -3.078125 L 1.8125 -3.078125 L 1.328125 -1.859375 C 1.179688 -1.441406 1.109375 -1.128906 1.109375 -0.921875 C 1.109375 -0.679688 1.1875 -0.503906 1.34375 -0.390625 C 1.507812 -0.285156 1.765625 -0.234375 2.109375 -0.234375 L 2.109375 0 C 1.671875 -0.0195312 1.226562 -0.03125 0.78125 -0.03125 C 0.4375 -0.03125 0.148438 -0.0195312 -0.078125 0 L -0.078125 -0.234375 C 0.304688 -0.328125 0.609375 -0.660156 0.828125 -1.234375 L 3.53125 -8.203125 L 3.71875 -8.203125 Z M 4.5 -3.3125 L 3.203125 -6.75 L 1.890625 -3.3125 Z M 4.5 -3.3125 "/></g></g></g><g fill="#e5b344" fill-opacity="1"><g transform="translate(206.366262, 122.305248)"><g><path d="M 3.421875 -7.90625 C 3.140625 -7.894531 2.9375 -7.863281 2.8125 -7.8125 C 2.6875 -7.769531 2.597656 -7.679688 2.546875 -7.546875 C 2.503906 -7.421875 2.484375 -7.210938 2.484375 -6.921875 L 2.484375 -1.21875 C 2.484375 -0.925781 2.503906 -0.710938 2.546875 -0.578125 C 2.597656 -0.453125 2.6875 -0.367188 2.8125 -0.328125 C 2.9375 -0.285156 3.140625 -0.265625 3.421875 -0.265625 L 4.25 -0.265625 C 4.726562 -0.265625 5.09375 -0.332031 5.34375 -0.46875 C 5.59375 -0.601562 5.773438 -0.816406 5.890625 -1.109375 C 6.003906 -1.410156 6.085938 -1.847656 6.140625 -2.421875 L 6.40625 -2.421875 C 6.382812 -2.179688 6.375 -1.863281 6.375 -1.46875 C 6.375 -1.03125 6.398438 -0.539062 6.453125 0 C 5.929688 -0.0195312 5.050781 -0.03125 3.8125 -0.03125 C 2.34375 -0.03125 1.234375 -0.0195312 0.484375 0 L 0.484375 -0.234375 C 0.753906 -0.242188 0.953125 -0.269531 1.078125 -0.3125 C 1.210938 -0.363281 1.300781 -0.453125 1.34375 -0.578125 C 1.394531 -0.710938 1.421875 -0.925781 1.421875 -1.21875 L 1.421875 -6.921875 C 1.421875 -7.210938 1.394531 -7.421875 1.34375 -7.546875 C 1.300781 -7.679688 1.210938 -7.769531 1.078125 -7.8125 C 0.953125 -7.863281 0.753906 -7.894531 0.484375 -7.90625 L 0.484375 -8.140625 C 0.804688 -8.117188 1.296875 -8.109375 1.953125 -8.109375 C 2.566406 -8.109375 3.054688 -8.117188 3.421875 -8.140625 Z M 3.421875 -7.90625 "/></g></g></g><g fill="#e5b344" fill-opacity="1"><g transform="translate(217.728718, 122.305248)"><g/></g></g><g fill="#e5b344" fill-opacity="1"><g transform="translate(225.192785, 122.305248)"><g><path d="M 3.421875 -7.90625 C 3.140625 -7.894531 2.9375 -7.863281 2.8125 -7.8125 C 2.6875 -7.769531 2.597656 -7.679688 2.546875 -7.546875 C 2.503906 -7.421875 2.484375 -7.210938 2.484375 -6.921875 L 2.484375 -1.21875 C 2.484375 -0.925781 2.503906 -0.710938 2.546875 -0.578125 C 2.597656 -0.453125 2.6875 -0.367188 2.8125 -0.328125 C 2.9375 -0.285156 3.140625 -0.265625 3.421875 -0.265625 L 4.25 -0.265625 C 4.726562 -0.265625 5.09375 -0.332031 5.34375 -0.46875 C 5.59375 -0.601562 5.773438 -0.816406 5.890625 -1.109375 C 6.003906 -1.410156 6.085938 -1.847656 6.140625 -2.421875 L 6.40625 -2.421875 C 6.382812 -2.179688 6.375 -1.863281 6.375 -1.46875 C 6.375 -1.03125 6.398438 -0.539062 6.453125 0 C 5.929688 -0.0195312 5.050781 -0.03125 3.8125 -0.03125 C 2.34375 -0.03125 1.234375 -0.0195312 0.484375 0 L 0.484375 -0.234375 C 0.753906 -0.242188 0.953125 -0.269531 1.078125 -0.3125 C 1.210938 -0.363281 1.300781 -0.453125 1.34375 -0.578125 C 1.394531 -0.710938 1.421875 -0.925781 1.421875 -1.21875 L 1.421875 -6.921875 C 1.421875 -7.210938 1.394531 -7.421875 1.34375 -7.546875 C 1.300781 -7.679688 1.210938 -7.769531 1.078125 -7.8125 C 0.953125 -7.863281 0.753906 -7.894531 0.484375 -7.90625 L 0.484375 -8.140625 C 0.804688 -8.117188 1.296875 -8.109375 1.953125 -8.109375 C 2.566406 -8.109375 3.054688 -8.117188 3.421875 -8.140625 Z M 3.421875 -7.90625 "/></g></g></g><g fill="#e5b344" fill-opacity="1"><g transform="translate(236.555227, 122.305248)"><g><path d="M 6.375 -1.46875 C 6.375 -1.03125 6.398438 -0.539062 6.453125 0 C 5.929688 -0.0195312 5.050781 -0.03125 3.8125 -0.03125 C 2.34375 -0.03125 1.234375 -0.0195312 0.484375 0 L 0.484375 -0.234375 C 0.753906 -0.242188 0.953125 -0.269531 1.078125 -0.3125 C 1.210938 -0.363281 1.300781 -0.453125 1.34375 -0.578125 C 1.394531 -0.710938 1.421875 -0.925781 1.421875 -1.21875 L 1.421875 -6.921875 C 1.421875 -7.210938 1.394531 -7.421875 1.34375 -7.546875 C 1.300781 -7.679688 1.210938 -7.769531 1.078125 -7.8125 C 0.953125 -7.863281 0.753906 -7.894531 0.484375 -7.90625 L 0.484375 -8.140625 C 1.234375 -8.117188 2.34375 -8.109375 3.8125 -8.109375 C 4.945312 -8.109375 5.75 -8.117188 6.21875 -8.140625 C 6.164062 -7.640625 6.140625 -7.1875 6.140625 -6.78125 C 6.140625 -6.488281 6.148438 -6.253906 6.171875 -6.078125 L 5.90625 -6.078125 C 5.851562 -6.566406 5.785156 -6.929688 5.703125 -7.171875 C 5.617188 -7.421875 5.476562 -7.597656 5.28125 -7.703125 C 5.082031 -7.816406 4.78125 -7.875 4.375 -7.875 L 3.421875 -7.875 C 3.140625 -7.875 2.9375 -7.851562 2.8125 -7.8125 C 2.6875 -7.769531 2.597656 -7.679688 2.546875 -7.546875 C 2.503906 -7.421875 2.484375 -7.210938 2.484375 -6.921875 L 2.484375 -4.203125 L 3.25 -4.203125 C 3.507812 -4.203125 3.710938 -4.265625 3.859375 -4.390625 C 4.003906 -4.523438 4.101562 -4.675781 4.15625 -4.84375 C 4.207031 -5.019531 4.25 -5.238281 4.28125 -5.5 L 4.3125 -5.734375 L 4.578125 -5.734375 C 4.554688 -5.410156 4.546875 -5.046875 4.546875 -4.640625 L 4.546875 -4.09375 C 4.546875 -3.695312 4.566406 -3.15625 4.609375 -2.46875 L 4.34375 -2.46875 C 4.332031 -2.519531 4.304688 -2.703125 4.265625 -3.015625 C 4.234375 -3.335938 4.128906 -3.578125 3.953125 -3.734375 C 3.785156 -3.898438 3.550781 -3.984375 3.25 -3.984375 L 2.484375 -3.984375 L 2.484375 -1.21875 C 2.484375 -0.925781 2.503906 -0.710938 2.546875 -0.578125 C 2.597656 -0.453125 2.6875 -0.367188 2.8125 -0.328125 C 2.9375 -0.285156 3.140625 -0.265625 3.421875 -0.265625 L 4.25 -0.265625 C 4.726562 -0.265625 5.09375 -0.328125 5.34375 -0.453125 C 5.59375 -0.578125 5.773438 -0.78125 5.890625 -1.0625 C 6.003906 -1.34375 6.085938 -1.753906 6.140625 -2.296875 L 6.40625 -2.296875 C 6.382812 -2.085938 6.375 -1.8125 6.375 -1.46875 Z M 6.375 -1.46875 "/></g></g></g><g fill="#e5b344" fill-opacity="1"><g transform="translate(248.159205, 122.305248)"><g><path d="M 6.515625 -0.96875 C 6.703125 -0.488281 6.96875 -0.242188 7.3125 -0.234375 L 7.3125 0 C 7.007812 -0.0195312 6.597656 -0.03125 6.078125 -0.03125 C 5.421875 -0.03125 4.929688 -0.0195312 4.609375 0 L 4.609375 -0.234375 C 4.898438 -0.242188 5.109375 -0.273438 5.234375 -0.328125 C 5.359375 -0.390625 5.421875 -0.5 5.421875 -0.65625 C 5.421875 -0.78125 5.378906 -0.960938 5.296875 -1.203125 L 4.59375 -3.078125 L 1.8125 -3.078125 L 1.328125 -1.859375 C 1.179688 -1.441406 1.109375 -1.128906 1.109375 -0.921875 C 1.109375 -0.679688 1.1875 -0.503906 1.34375 -0.390625 C 1.507812 -0.285156 1.765625 -0.234375 2.109375 -0.234375 L 2.109375 0 C 1.671875 -0.0195312 1.226562 -0.03125 0.78125 -0.03125 C 0.4375 -0.03125 0.148438 -0.0195312 -0.078125 0 L -0.078125 -0.234375 C 0.304688 -0.328125 0.609375 -0.660156 0.828125 -1.234375 L 3.53125 -8.203125 L 3.71875 -8.203125 Z M 4.5 -3.3125 L 3.203125 -6.75 L 1.890625 -3.3125 Z M 4.5 -3.3125 "/></g></g></g><g fill="#e5b344" fill-opacity="1"><g transform="translate(260.004634, 122.305248)"><g><path d="M 3.625 -8.140625 C 4.976562 -8.140625 5.992188 -7.800781 6.671875 -7.125 C 7.347656 -6.445312 7.6875 -5.457031 7.6875 -4.15625 C 7.6875 -3.320312 7.519531 -2.59375 7.1875 -1.96875 C 6.851562 -1.34375 6.375 -0.859375 5.75 -0.515625 C 5.125 -0.171875 4.378906 0 3.515625 0 L 2.859375 -0.015625 C 2.421875 -0.0234375 2.101562 -0.03125 1.90625 -0.03125 C 1.28125 -0.03125 0.804688 -0.0195312 0.484375 0 L 0.484375 -0.234375 C 0.753906 -0.242188 0.953125 -0.269531 1.078125 -0.3125 C 1.210938 -0.363281 1.300781 -0.453125 1.34375 -0.578125 C 1.394531 -0.710938 1.421875 -0.925781 1.421875 -1.21875 L 1.421875 -6.921875 C 1.421875 -7.210938 1.394531 -7.421875 1.34375 -7.546875 C 1.300781 -7.679688 1.210938 -7.769531 1.078125 -7.8125 C 0.953125 -7.863281 0.753906 -7.894531 0.484375 -7.90625 L 0.484375 -8.140625 C 0.753906 -8.117188 1.125 -8.109375 1.59375 -8.109375 L 2.578125 -8.125 C 3.097656 -8.132812 3.445312 -8.140625 3.625 -8.140625 Z M 3.328125 -7.9375 C 3.097656 -7.9375 2.921875 -7.910156 2.796875 -7.859375 C 2.679688 -7.804688 2.597656 -7.707031 2.546875 -7.5625 C 2.503906 -7.425781 2.484375 -7.222656 2.484375 -6.953125 L 2.484375 -1.203125 C 2.484375 -0.921875 2.503906 -0.710938 2.546875 -0.578125 C 2.597656 -0.441406 2.679688 -0.34375 2.796875 -0.28125 C 2.921875 -0.226562 3.101562 -0.203125 3.34375 -0.203125 C 4.15625 -0.203125 4.796875 -0.347656 5.265625 -0.640625 C 5.734375 -0.941406 6.0625 -1.375 6.25 -1.9375 C 6.4375 -2.507812 6.53125 -3.234375 6.53125 -4.109375 C 6.53125 -4.992188 6.425781 -5.710938 6.21875 -6.265625 C 6.007812 -6.828125 5.671875 -7.242188 5.203125 -7.515625 C 4.742188 -7.796875 4.117188 -7.9375 3.328125 -7.9375 Z M 3.328125 -7.9375 "/></g></g></g><g fill="#e5b344" fill-opacity="1"><g transform="translate(272.919545, 122.305248)"><g><path d="M 2.9375 -8.265625 C 3.28125 -8.265625 3.546875 -8.226562 3.734375 -8.15625 C 3.929688 -8.082031 4.132812 -7.976562 4.34375 -7.84375 C 4.507812 -7.738281 4.640625 -7.6875 4.734375 -7.6875 C 4.804688 -7.6875 4.859375 -7.722656 4.890625 -7.796875 C 4.929688 -7.878906 4.960938 -8.007812 4.984375 -8.1875 L 5.25 -8.1875 C 5.21875 -7.738281 5.203125 -6.957031 5.203125 -5.84375 L 4.9375 -5.84375 C 4.882812 -6.457031 4.703125 -6.976562 4.390625 -7.40625 C 4.085938 -7.832031 3.640625 -8.046875 3.046875 -8.046875 C 2.628906 -8.046875 2.289062 -7.921875 2.03125 -7.671875 C 1.769531 -7.421875 1.640625 -7.101562 1.640625 -6.71875 C 1.640625 -6.425781 1.707031 -6.171875 1.84375 -5.953125 C 1.976562 -5.742188 2.148438 -5.5625 2.359375 -5.40625 C 2.566406 -5.25 2.863281 -5.050781 3.25 -4.8125 L 3.578125 -4.609375 C 4.054688 -4.304688 4.4375 -4.039062 4.71875 -3.8125 C 5 -3.59375 5.222656 -3.335938 5.390625 -3.046875 C 5.554688 -2.753906 5.640625 -2.414062 5.640625 -2.03125 C 5.640625 -1.332031 5.410156 -0.789062 4.953125 -0.40625 C 4.492188 -0.03125 3.910156 0.15625 3.203125 0.15625 C 2.835938 0.15625 2.535156 0.117188 2.296875 0.046875 C 2.066406 -0.0234375 1.847656 -0.128906 1.640625 -0.265625 C 1.460938 -0.367188 1.328125 -0.421875 1.234375 -0.421875 C 1.171875 -0.421875 1.117188 -0.378906 1.078125 -0.296875 C 1.046875 -0.222656 1.015625 -0.0976562 0.984375 0.078125 L 0.71875 0.078125 C 0.75 -0.335938 0.765625 -1.253906 0.765625 -2.671875 L 1.03125 -2.671875 C 1.082031 -1.898438 1.273438 -1.269531 1.609375 -0.78125 C 1.941406 -0.300781 2.445312 -0.0625 3.125 -0.0625 C 3.539062 -0.0625 3.894531 -0.191406 4.1875 -0.453125 C 4.476562 -0.710938 4.625 -1.09375 4.625 -1.59375 C 4.625 -2.03125 4.476562 -2.394531 4.1875 -2.6875 C 3.90625 -2.988281 3.453125 -3.328125 2.828125 -3.703125 C 2.378906 -3.972656 2.015625 -4.21875 1.734375 -4.4375 C 1.453125 -4.65625 1.222656 -4.914062 1.046875 -5.21875 C 0.867188 -5.519531 0.78125 -5.875 0.78125 -6.28125 C 0.78125 -6.925781 0.988281 -7.414062 1.40625 -7.75 C 1.820312 -8.09375 2.332031 -8.265625 2.9375 -8.265625 Z M 2.9375 -8.265625 "/></g></g></g></svg>